<svg width="10" height="10" viewBox="0 0 10 10" fill="none" xmlns="http://www.w3.org/2000/svg">
<path d="M9.625 2.00125V0.4C9.625 0.17875 9.44625 0 9.225 0H0.775007C0.553757 0 0.375007 0.17875 0.375007 0.4V2.00125C0.166258 2.01375 7.74491e-06 2.1875 7.74491e-06 2.4V4.04625C-0.000792761 4.34881 0.0604695 4.64831 0.180008 4.92625C0.233758 5.05375 0.300008 5.17375 0.375007 5.2875V9.6C0.375007 9.82 0.553757 10 0.775007 10H9.225C9.44625 10 9.625 9.82125 9.625 9.6V5.2875C9.70118 5.17346 9.76647 5.05251 9.82 4.92625C9.93875 4.6475 10 4.35125 10 4.04625V2.4C10 2.1875 9.83375 2.01375 9.625 2.00125ZM1.27501 0.9H8.725V2H1.27501V0.9ZM5.8 9.10125H4.2V7.8H5.8V9.10125ZM8.725 9.10125H6.6V7.4C6.6 7.17875 6.42125 7 6.2 7H3.8C3.57875 7 3.40001 7.17875 3.40001 7.4V9.10125H1.27501V6.07375C1.31126 6.09125 1.34876 6.10875 1.38751 6.12375C1.66626 6.24125 1.96251 6.3 2.26751 6.3C2.57251 6.3 2.86751 6.24125 3.14751 6.12375C3.32001 6.05125 3.48251 5.95875 3.63125 5.8475C3.63375 5.84625 3.63626 5.84625 3.63876 5.8475C3.78797 5.95922 3.95046 6.05201 4.1225 6.12375C4.40125 6.24125 4.6975 6.3 5.0025 6.3C5.3075 6.3 5.6025 6.24125 5.8825 6.12375C6.055 6.05125 6.2175 5.95875 6.36625 5.8475C6.36875 5.84625 6.37125 5.84625 6.37375 5.8475C6.52297 5.95922 6.68545 6.05201 6.8575 6.12375C7.13625 6.24125 7.4325 6.3 7.7375 6.3C8.0425 6.3 8.3375 6.24125 8.6175 6.12375C8.655 6.1075 8.6925 6.09125 8.73 6.07375V9.10125H8.725ZM9.1 4.04625C9.1 4.79375 8.4875 5.4 7.73375 5.4C7.22375 5.4 6.77875 5.12375 6.54375 4.71375C6.5075 4.65125 6.4425 4.6125 6.37 4.6125H6.3625C6.29125 4.6125 6.225 4.65125 6.18875 4.71375C6.06883 4.9229 5.89567 5.09656 5.68687 5.2171C5.47808 5.33763 5.24109 5.40074 5 5.4C4.49125 5.4 4.0475 5.125 3.8125 4.71625C3.775 4.6525 3.7075 4.6125 3.63376 4.6125C3.56001 4.6125 3.49126 4.6525 3.455 4.71625C3.33438 4.9246 3.161 5.09749 2.95231 5.21752C2.74363 5.33755 2.507 5.40049 2.26626 5.4C1.51251 5.4 0.900007 4.79375 0.900007 4.04625V2.90625C0.900007 2.9025 0.902507 2.9 0.906257 2.9H9.09375C9.0975 2.9 9.1 2.9025 9.1 2.90625V4.04625Z" fill="#FFB47D"/>
</svg>
