<svg width="14" height="10" viewBox="0 0 14 10" fill="none" xmlns="http://www.w3.org/2000/svg">
<path d="M12.6885 10H1.31348C0.587227 10 0.000976562 9.44167 0.000976562 8.75V1.25C0.000976562 0.558333 0.587227 0 1.31348 0H12.6885C13.4147 0 14.001 0.558333 14.001 1.25V8.75C14.001 9.44167 13.4147 10 12.6885 10ZM1.31348 0.833333C1.06848 0.833333 0.875977 1.01667 0.875977 1.25V8.75C0.875977 8.98333 1.06848 9.16667 1.31348 9.16667H12.6885C12.9335 9.16667 13.126 8.98333 13.126 8.75V1.25C13.126 1.01667 12.9335 0.833333 12.6885 0.833333H1.31348Z" fill="#FFB47D"/>
<path d="M7.00097 6.63335C6.38847 6.63335 5.82847 6.40002 5.40847 5.97502L0.81472 1.32502C0.64847 1.15835 0.65722 0.891684 0.83222 0.733351C1.00722 0.575017 1.28722 0.583351 1.45347 0.750017L6.04722 5.40002C6.54597 5.90835 7.45597 5.90835 7.95472 5.40002L12.5485 0.758351C12.7147 0.591684 12.9947 0.583351 13.1697 0.741684C13.3447 0.900017 13.3535 1.16668 13.1872 1.33335L8.59347 5.98335C8.17347 6.40835 7.61347 6.64168 7.00097 6.64168V6.63335Z" fill="#FFB47D"/>
</svg>
