<svg width="8" height="11" viewBox="0 0 8 11" fill="none" xmlns="http://www.w3.org/2000/svg">
<path d="M4 8.11905C3.73478 8.11905 3.48043 8.01871 3.29289 7.8401C3.10536 7.6615 3 7.41925 3 7.16667C3 6.6381 3.445 6.21429 4 6.21429C4.26522 6.21429 4.51957 6.31463 4.70711 6.49323C4.89464 6.67184 5 6.91408 5 7.16667C5 7.41925 4.89464 7.6615 4.70711 7.8401C4.51957 8.01871 4.26522 8.11905 4 8.11905ZM7 9.54762V4.78571H1V9.54762H7ZM7 3.83333C7.26522 3.83333 7.51957 3.93367 7.70711 4.11228C7.89464 4.29089 8 4.53313 8 4.78571V9.54762C8 9.80021 7.89464 10.0424 7.70711 10.2211C7.51957 10.3997 7.26522 10.5 7 10.5H1C0.734784 10.5 0.48043 10.3997 0.292893 10.2211C0.105357 10.0424 0 9.80021 0 9.54762V4.78571C0 4.25714 0.445 3.83333 1 3.83333H1.5V2.88095C1.5 2.24948 1.76339 1.64388 2.23223 1.19736C2.70107 0.75085 3.33696 0.5 4 0.5C4.3283 0.5 4.65339 0.561585 4.95671 0.681239C5.26002 0.800893 5.53562 0.976273 5.76777 1.19736C5.99991 1.41846 6.18406 1.68093 6.3097 1.9698C6.43534 2.25867 6.5 2.56828 6.5 2.88095V3.83333H7ZM4 1.45238C3.60218 1.45238 3.22064 1.60289 2.93934 1.8708C2.65804 2.13871 2.5 2.50207 2.5 2.88095V3.83333H5.5V2.88095C5.5 2.50207 5.34196 2.13871 5.06066 1.8708C4.77936 1.60289 4.39782 1.45238 4 1.45238Z" fill="#FFB47D"/>
</svg>
