<svg width="10" height="10" viewBox="0 0 10 10" fill="none" xmlns="http://www.w3.org/2000/svg">
<path fill-rule="evenodd" clip-rule="evenodd" d="M6.818 3.6363C6.818 4.11851 6.62645 4.58097 6.28547 4.92195C5.9445 5.26292 5.48203 5.45448 4.99982 5.45448C4.51761 5.45448 4.05515 5.26292 3.71417 4.92195C3.3732 4.58097 3.18164 4.11851 3.18164 3.6363C3.18164 3.15409 3.3732 2.69162 3.71417 2.35065C4.05515 2.00967 4.51761 1.81812 4.99982 1.81812C5.48203 1.81812 5.9445 2.00967 6.28547 2.35065C6.62645 2.69162 6.818 3.15409 6.818 3.6363ZM5.90891 3.6363C5.90891 3.8774 5.81313 4.10863 5.64265 4.27912C5.47216 4.44961 5.24093 4.54539 4.99982 4.54539C4.75872 4.54539 4.52749 4.44961 4.357 4.27912C4.18651 4.10863 4.09073 3.8774 4.09073 3.6363C4.09073 3.39519 4.18651 3.16396 4.357 2.99347C4.52749 2.82299 4.75872 2.72721 4.99982 2.72721C5.24093 2.72721 5.47216 2.82299 5.64265 2.99347C5.81313 3.16396 5.90891 3.39519 5.90891 3.6363Z" fill="#FFB47D"/>
<path fill-rule="evenodd" clip-rule="evenodd" d="M5 0C2.23864 0 0 2.23864 0 5C0 7.76136 2.23864 10 5 10C7.76136 10 10 7.76136 10 5C10 2.23864 7.76136 0 5 0ZM0.909091 5C0.909091 5.95 1.23318 6.82455 1.77636 7.51909C2.15783 7.01814 2.64995 6.61216 3.21429 6.33287C3.77862 6.05358 4.39988 5.90854 5.02955 5.90909C5.65106 5.9085 6.26451 6.04978 6.82315 6.32217C7.38179 6.59456 7.87089 6.99087 8.25318 7.48091C8.64702 6.96437 8.9122 6.36146 9.02677 5.72209C9.14134 5.08271 9.10201 4.42524 8.91204 3.80408C8.72207 3.18292 8.38692 2.61593 7.93431 2.15002C7.48171 1.6841 6.92466 1.33266 6.30927 1.12478C5.69387 0.91689 5.03782 0.858533 4.39539 0.954533C3.75296 1.05053 3.14263 1.29813 2.6149 1.67684C2.08716 2.05555 1.65719 2.55449 1.36056 3.13236C1.06393 3.71024 0.909173 4.35044 0.909091 5ZM5 9.09091C4.06089 9.09232 3.15012 8.76925 2.42182 8.17636C2.71497 7.7567 3.10515 7.41405 3.55918 7.17758C4.0132 6.94111 4.51763 6.81782 5.02955 6.81818C5.53507 6.81778 6.0334 6.93799 6.48315 7.16883C6.93289 7.39967 7.32108 7.73448 7.61545 8.14545C6.8815 8.75759 5.95572 9.09225 5 9.09091Z" fill="#FFB47D"/>
</svg>
